<?xml version="1.0" encoding="UTF-8" standalone="no"?>
<!DOCTYPE svg PUBLIC "-//W3C//DTD SVG 1.1//EN" "http://www.w3.org/Graphics/SVG/1.1/DTD/svg11.dtd">
<svg xmlns="http://www.w3.org/2000/svg" xmlns:xl="http://www.w3.org/1999/xlink" version="1.1" viewBox="0 0 1152 949" width="96pc" height="949pt" xmlns:dc="http://purl.org/dc/elements/1.1/">
  <metadata> Produced by OmniGraffle 7.3 
    <dc:date>2017-11-30 01:24:15 +0000</dc:date>
  </metadata>
  <defs/>
  <g stroke="none" stroke-opacity="1" stroke-dasharray="none" fill="none" fill-opacity="1">
    <title>Canvas 1</title>
    <rect fill="white" width="576" height="949"/>
    <g>
      <title>Rooms</title>
      <rect x="131.0187" y="122.625" width="283.97" height="98.9543" fill="#ffffc0"/>
      <rect x="131.0187" y="122.625" width="283.97" height="98.9543" stroke="#ff40ff" stroke-linecap="round" stroke-linejoin="round" stroke-width="1"/>
      <rect x="415.125" y="122.625" width="108.28059" height="98.9543" fill="#ffffc0"/>
      <rect x="415.125" y="122.625" width="108.28059" height="98.9543" stroke="#ff40ff" stroke-linecap="round" stroke-linejoin="round" stroke-width="1"/>
      <rect x="415.125" y="221.625" width="36" height="290.375" fill="#ffffc0"/>
      <rect x="415.125" y="221.625" width="36" height="290.375" stroke="#ff40ff" stroke-linecap="round" stroke-linejoin="round" stroke-width="1"/>
      <rect x="131.0187" y="221.625" width="124.3563" height="101.20834" fill="#ffffc0"/>
      <rect x="131.0187" y="221.625" width="124.3563" height="101.20834" stroke="#ff40ff" stroke-linecap="round" stroke-linejoin="round" stroke-width="1"/>
      <rect x="255.375" y="221.625" width="63" height="101.25" fill="#ffffc0"/>
      <rect x="255.375" y="221.625" width="63" height="101.25" stroke="#ff40ff" stroke-linecap="round" stroke-linejoin="round" stroke-width="1"/>
      <rect x="318.375" y="221.625" width="96.61369" height="101.25" fill="#ffffc0"/>
      <rect x="318.375" y="221.625" width="96.61369" height="101.25" stroke="#ff40ff" stroke-linecap="round" stroke-linejoin="round" stroke-width="1"/>
      <rect x="309.35206" y="322.875" width="105.63663" height="189.125" fill="#ffffc0"/>
      <rect x="309.35206" y="322.875" width="105.63663" height="189.125" stroke="#ff40ff" stroke-linecap="round" stroke-linejoin="round" stroke-width="1"/>
      <rect x="450" y="249.94345" width="73.40559" height="70.875" fill="#ffffc0"/>
      <rect x="450" y="249.94345" width="73.40559" height="70.875" stroke="#ff40ff" stroke-linecap="round" stroke-linejoin="round" stroke-width="1"/>
      <rect x="450" y="319.5" width="73.40559" height="33.860546" fill="#ffffc0"/>
      <rect x="450" y="319.5" width="73.40559" height="33.860546" stroke="#ff40ff" stroke-linecap="round" stroke-linejoin="round" stroke-width="1"/>
      <rect x="450" y="353.25" width="73.40559" height="70.875" fill="#ffffc0"/>
      <rect x="450" y="353.25" width="73.40559" height="70.875" stroke="#ff40ff" stroke-linecap="round" stroke-linejoin="round" stroke-width="1"/>
      <rect x="450" y="424.125" width="73.40559" height="109.625" fill="#ffffc0"/>
      <rect x="450" y="424.125" width="73.40559" height="109.625" stroke="#ff40ff" stroke-linecap="round" stroke-linejoin="round" stroke-width="1"/>
      <rect x="309.35206" y="511.875" width="214.05352" height="143.125" fill="#ffffc0"/>
      <rect x="309.35206" y="511.875" width="214.05352" height="143.125" stroke="#ff40ff" stroke-linecap="round" stroke-linejoin="round" stroke-width="1"/>
      <rect x="450" y="221.5793" width="73.40559" height="28.170703" fill="#ffffc0"/>
      <rect x="450" y="221.5793" width="73.40559" height="28.170703" stroke="#ff40ff" stroke-linecap="round" stroke-linejoin="round" stroke-width="1"/>
      <rect x="138.375" y="543.375" width="73.40559" height="178.75" fill="#ffffc0"/>
      <rect x="138.375" y="543.375" width="73.40559" height="178.75" stroke="#ff40ff" stroke-linecap="round" stroke-linejoin="round" stroke-width="1"/>
      <rect x="41.625" y="543.375" width="96.61369" height="118.125" fill="#ffffc0"/>
      <rect x="41.625" y="543.375" width="96.61369" height="118.125" stroke="#ff40ff" stroke-linecap="round" stroke-linejoin="round" stroke-width="1"/>
      <rect x="41.625" y="661.5" width="96.61369" height="60.625" fill="#ffffc0"/>
      <rect x="41.625" y="661.5" width="96.61369" height="60.625" stroke="#ff40ff" stroke-linecap="round" stroke-linejoin="round" stroke-width="1"/>
    </g>
  </g>
</svg>
